<?xml version="1.0" encoding="UTF-8"?>
<!DOCTYPE svg PUBLIC "-//W3C//DTD SVG 1.1//EN" "http://www.w3.org/Graphics/SVG/1.1/DTD/svg11.dtd">
<svg xmlns="http://www.w3.org/2000/svg" version="1.1" width="1024px" height="1024px" style="shape-rendering:geometricPrecision; text-rendering:geometricPrecision; image-rendering:optimizeQuality; fill-rule:evenodd; clip-rule:evenodd" xmlns:xlink="http://www.w3.org/1999/xlink">
<g><path style="opacity:1" fill="#fbfbfb" d="M -0.5,-0.5 C 340.833,-0.5 682.167,-0.5 1023.5,-0.5C 1023.5,340.833 1023.5,682.167 1023.5,1023.5C 682.167,1023.5 340.833,1023.5 -0.5,1023.5C -0.5,682.167 -0.5,340.833 -0.5,-0.5 Z"/></g>
<g><path style="opacity:1" fill="#05264e" d="M 599.5,969.5 C 453.668,968.5 307.668,968.167 161.5,968.5C 158.852,968.262 157.018,966.928 156,964.5C 155.5,787.5 155.333,610.5 155.5,433.5C 154.327,431.496 152.66,429.996 150.5,429C 120.5,428.667 90.5,428.333 60.5,428C 58.6041,426.192 58.1041,424.025 59,421.5C 62.5338,417.631 66.3672,414.131 70.5,411C 70.2716,410.601 69.9382,410.435 69.5,410.5C 213.935,290.575 358.269,170.408 502.5,50C 508.641,46.6344 514.641,46.9677 520.5,51C 626.875,139.711 733.542,228.044 840.5,316C 937.048,402.356 977.215,510.189 961,639.5C 945.268,763.894 883.101,856.728 774.5,918C 719.886,947.738 661.552,964.904 599.5,969.5 Z"/></g>
<g><path style="opacity:1" fill="#fafafb" d="M 872.5,542.5 C 872.928,551.162 873.262,559.829 873.5,568.5C 877.2,629.123 866.034,686.789 840,741.5C 801.24,812.167 743.073,859 665.5,882C 654.6,884.947 643.6,887.447 632.5,889.5C 628.011,889.167 626.511,886.833 628,882.5C 678.296,828.625 700.63,764.625 695,690.5C 684.758,594.524 632.925,534.357 539.5,510C 515.827,504.408 491.827,501.908 467.5,502.5C 461.833,502.5 456.167,502.5 450.5,502.5C 378.499,502.667 306.499,502.5 234.5,502C 233.667,501.167 232.833,500.333 232,499.5C 231.333,460.167 231.333,420.833 232,381.5C 234.001,378.669 236.167,376.003 238.5,373.5C 328.356,297.481 418.69,221.981 509.5,147C 510.833,146.333 512.167,146.333 513.5,147C 600.543,219.045 687.876,290.711 775.5,362C 831.802,409.093 864.135,469.26 872.5,542.5 Z"/></g>
<g><path style="opacity:1" fill="#031a43" d="M 496.5,291.5 C 496.167,291.5 495.833,291.5 495.5,291.5C 472.833,291.5 450.167,291.5 427.5,291.5C 427.5,313.167 427.5,334.833 427.5,356.5C 426.833,356.5 426.5,356.833 426.5,357.5C 425.337,335.671 425.17,313.671 426,291.5C 426.5,291 427,290.5 427.5,290C 450.167,289.333 472.833,289.333 495.5,290C 496.056,290.383 496.389,290.883 496.5,291.5 Z"/></g>
<g><path style="opacity:1" fill="#05274f" d="M 495.5,291.5 C 495.5,313.5 495.5,335.5 495.5,357.5C 472.661,357.831 449.994,357.497 427.5,356.5C 427.5,334.833 427.5,313.167 427.5,291.5C 450.167,291.5 472.833,291.5 495.5,291.5 Z"/></g>
<g><path style="opacity:1" fill="#05274f" d="M 524.5,291.5 C 546.5,291.5 568.5,291.5 590.5,291.5C 590.5,313.167 590.5,334.833 590.5,356.5C 568.337,357.663 546.004,357.83 523.5,357C 522.34,335.573 522.174,314.073 523,292.5C 523.383,291.944 523.883,291.611 524.5,291.5 Z"/></g>
<g><path style="opacity:1" fill="#001440" d="M 523.5,290.5 C 546.004,289.171 568.67,289.171 591.5,290.5C 592.827,312.961 592.827,335.294 591.5,357.5C 591.5,356.833 591.167,356.5 590.5,356.5C 590.5,334.833 590.5,313.167 590.5,291.5C 568.5,291.5 546.5,291.5 524.5,291.5C 524.5,290.833 524.167,290.5 523.5,290.5 Z"/></g>
<g><path style="opacity:1" fill="#00001a" d="M 495.5,291.5 C 495.833,291.5 496.167,291.5 496.5,291.5C 496.5,313.833 496.5,336.167 496.5,358.5C 472.994,358.831 449.661,358.498 426.5,357.5C 426.5,356.833 426.833,356.5 427.5,356.5C 449.994,357.497 472.661,357.831 495.5,357.5C 495.5,335.5 495.5,313.5 495.5,291.5 Z"/></g>
<g><path style="opacity:1" fill="#00001d" d="M 523.5,290.5 C 524.167,290.5 524.5,290.833 524.5,291.5C 523.883,291.611 523.383,291.944 523,292.5C 522.174,314.073 522.34,335.573 523.5,357C 546.004,357.83 568.337,357.663 590.5,356.5C 591.167,356.5 591.5,356.833 591.5,357.5C 568.67,358.663 545.67,358.83 522.5,358C 521.34,335.906 521.173,313.739 522,291.5C 522.383,290.944 522.883,290.611 523.5,290.5 Z"/></g>
<g><path style="opacity:1" fill="#031135" d="M 523.5,383.5 C 545.329,382.337 567.329,382.17 589.5,383C 590,383.5 590.5,384 591,384.5C 591.5,406.497 591.667,428.497 591.5,450.5C 590.828,428.764 590.162,406.931 589.5,385C 567.836,384.5 546.169,384.333 524.5,384.5C 524.5,383.833 524.167,383.5 523.5,383.5 Z"/></g>
<g><path style="opacity:1" fill="#04264f" d="M 496.5,450.5 C 496.167,451.5 495.5,452.167 494.5,452.5C 472.525,450.511 450.192,449.844 427.5,450.5C 427.5,428.5 427.5,406.5 427.5,384.5C 450.167,384.5 472.833,384.5 495.5,384.5C 495.169,406.673 495.503,428.673 496.5,450.5 Z"/></g>
<g><path style="opacity:1" fill="#04264f" d="M 524.5,384.5 C 546.169,384.333 567.836,384.5 589.5,385C 590.162,406.931 590.828,428.764 591.5,450.5C 591.167,451.5 590.5,452.167 589.5,452.5C 589.082,451.778 588.416,451.278 587.5,451C 565.836,450.5 544.169,450.333 522.5,450.5C 521.662,450.158 521.328,449.492 521.5,448.5C 522.332,427.671 522.832,406.671 523,385.5C 523.383,384.944 523.883,384.611 524.5,384.5 Z"/></g>
<g><path style="opacity:1" fill="#000020" d="M 523.5,383.5 C 524.167,383.5 524.5,383.833 524.5,384.5C 523.883,384.611 523.383,384.944 523,385.5C 522.832,406.671 522.332,427.671 521.5,448.5C 521.333,427.164 521.5,405.831 522,384.5C 522.383,383.944 522.883,383.611 523.5,383.5 Z"/></g>
<g><path style="opacity:1" fill="#01123d" d="M 69.5,410.5 C 69.9382,410.435 70.2716,410.601 70.5,411C 66.3672,414.131 62.5338,417.631 59,421.5C 58.1041,424.025 58.6041,426.192 60.5,428C 90.5,428.333 120.5,428.667 150.5,429C 152.66,429.996 154.327,431.496 155.5,433.5C 155.167,433.5 154.833,433.5 154.5,433.5C 153.373,432.878 152.373,432.045 151.5,431C 121.5,430.667 91.5,430.333 61.5,430C 57.7084,427.947 56.5418,424.781 58,420.5C 61.4097,416.584 65.243,413.251 69.5,410.5 Z"/></g>
<g><path style="opacity:1" fill="#01133b" d="M 496.5,450.5 C 495.503,428.673 495.169,406.673 495.5,384.5C 472.833,384.5 450.167,384.5 427.5,384.5C 427.5,406.5 427.5,428.5 427.5,450.5C 450.192,449.844 472.525,450.511 494.5,452.5C 472.164,452.667 449.831,452.5 427.5,452C 427,451.5 426.5,451 426,450.5C 425.333,428.5 425.333,406.5 426,384.5C 426.5,384 427,383.5 427.5,383C 450.167,382.333 472.833,382.333 495.5,383C 496.494,405.425 496.827,427.925 496.5,450.5 Z"/></g>
<g><path style="opacity:1" fill="#00133e" d="M 522.5,450.5 C 544.169,450.333 565.836,450.5 587.5,451C 588.416,451.278 589.082,451.778 589.5,452.5C 567.497,452.667 545.497,452.5 523.5,452C 522.944,451.617 522.611,451.117 522.5,450.5 Z"/></g>
<g><path style="opacity:1" fill="#000530" d="M 238.5,373.5 C 236.167,376.003 234.001,378.669 232,381.5C 231.333,420.833 231.333,460.167 232,499.5C 232.833,500.333 233.667,501.167 234.5,502C 306.499,502.5 378.499,502.667 450.5,502.5C 379.335,503.499 308.002,503.833 236.5,503.5C 234.097,503.607 232.264,502.607 231,500.5C 230.333,460.5 230.333,420.5 231,380.5C 232.736,377.261 235.236,374.927 238.5,373.5 Z"/></g>
<g><path style="opacity:1" fill="#00133f" d="M 450.5,502.5 C 456.167,502.5 461.833,502.5 467.5,502.5C 469.631,503.314 471.964,503.814 474.5,504C 394.999,504.832 315.666,504.666 236.5,503.5C 308.002,503.833 379.335,503.499 450.5,502.5 Z"/></g>
<g><path style="opacity:1" fill="#060d2a" d="M 873.5,568.5 C 873.262,559.829 872.928,551.162 872.5,542.5C 874.046,549.706 874.879,557.706 875,566.5C 875.667,577.833 875.667,589.167 875,600.5C 874.83,589.659 874.33,578.992 873.5,568.5 Z"/></g>
<g><path style="opacity:1" fill="#fafafb" d="M 255.5,580.5 C 326.167,580.333 396.834,580.5 467.5,581C 499.712,581.046 529.045,590.046 555.5,608C 583.291,631.612 598.791,661.779 602,698.5C 605.843,735.127 598.843,769.46 581,801.5C 559.133,833.657 528.966,853.49 490.5,861C 480.906,862.844 471.24,864.177 461.5,865C 392.834,865.5 324.167,865.667 255.5,865.5C 254.878,864.373 254.045,863.373 253,862.5C 252.333,769.5 252.333,676.5 253,583.5C 254.045,582.627 254.878,581.627 255.5,580.5 Z"/></g>
<g><path style="opacity:1" fill="#00011d" d="M 154.5,433.5 C 154.833,433.5 155.167,433.5 155.5,433.5C 155.333,610.5 155.5,787.5 156,964.5C 157.018,966.928 158.852,968.262 161.5,968.5C 161.5,969.167 161.167,969.5 160.5,969.5C 157.852,969.262 156.018,967.928 155,965.5C 154.5,788.167 154.333,610.834 154.5,433.5 Z"/></g>
<g><path style="opacity:1" fill="#00113d" d="M 255.5,580.5 C 254.878,581.627 254.045,582.627 253,583.5C 252.333,676.5 252.333,769.5 253,862.5C 254.045,863.373 254.878,864.373 255.5,865.5C 255.565,865.938 255.399,866.272 255,866.5C 253.287,865.122 251.953,863.455 251,861.5C 250.333,769.167 250.333,676.833 251,584.5C 251.953,582.545 253.287,580.878 255,579.5C 255.399,579.728 255.565,580.062 255.5,580.5 Z"/></g>
<g><path style="opacity:1" fill="#000d3b" d="M 161.5,968.5 C 307.668,968.167 453.668,968.5 599.5,969.5C 453.007,970.815 306.674,970.815 160.5,969.5C 161.167,969.5 161.5,969.167 161.5,968.5 Z"/></g>
</svg>
