<?xml version="1.0" encoding="UTF-8"?>
<!DOCTYPE svg PUBLIC "-//W3C//DTD SVG 1.1//EN" "http://www.w3.org/Graphics/SVG/1.1/DTD/svg11.dtd">
<svg xmlns="http://www.w3.org/2000/svg" version="1.1" viewBox="60 48 922 918" style="shape-rendering:geometricPrecision; text-rendering:geometricPrecision; image-rendering:optimizeQuality; fill-rule:evenodd; clip-rule:evenodd" xmlns:xlink="http://www.w3.org/1999/xlink">
<g><path style="opacity:1" fill="#05264e" d="M 599.5,969.5 C 453.668,968.5 307.668,968.167 161.5,968.5C 158.852,968.262 157.018,966.928 156,964.5C 155.5,787.5 155.333,610.5 155.5,433.5C 154.327,431.496 152.66,429.996 150.5,429C 120.5,428.667 90.5,428.333 60.5,428C 58.6041,426.192 58.1041,424.025 59,421.5C 62.5338,417.631 66.3672,414.131 70.5,411C 70.2716,410.601 69.9382,410.435 69.5,410.5C 213.935,290.575 358.269,170.408 502.5,50C 508.641,46.6344 514.641,46.9677 520.5,51C 626.875,139.711 733.542,228.044 840.5,316C 937.048,402.356 977.215,510.189 961,639.5C 945.268,763.894 883.101,856.728 774.5,918C 719.886,947.738 661.552,964.904 599.5,969.5 Z"/></g>
<g><path style="opacity:1" fill="#fbfbfb" d="M 872.5,542.5 C 872.928,551.162 873.262,559.829 873.5,568.5C 877.2,629.123 866.034,686.789 840,741.5C 801.24,812.167 743.073,859 665.5,882C 654.6,884.947 643.6,887.447 632.5,889.5C 628.011,889.167 626.511,886.833 628,882.5C 678.296,828.625 700.63,764.625 695,690.5C 684.758,594.524 632.925,534.357 539.5,510C 515.827,504.408 491.827,501.908 467.5,502.5C 461.833,502.5 456.167,502.5 450.5,502.5C 378.499,502.667 306.499,502.5 234.5,502C 233.667,501.167 232.833,500.333 232,499.5C 231.333,460.167 231.333,420.833 232,381.5C 234.001,378.669 236.167,376.003 238.5,373.5C 328.356,297.481 418.69,221.981 509.5,147C 510.833,146.333 512.167,146.333 513.5,147C 600.543,219.045 687.876,290.711 775.5,362C 831.802,409.093 864.135,469.26 872.5,542.5 Z"/></g>
<rect x="427.5" y="290" width="68" height="68" fill="#05264e" style="opacity:1"/>
<rect x="523.5" y="290" width="68" height="68" fill="#05264e" style="opacity:1"/>
<rect x="427.5" y="386" width="68" height="68" fill="#05264e" style="opacity:1"/>
<rect x="523.5" y="386" width="68" height="68" fill="#05264e" style="opacity:1"/>
<g><path style="opacity:1" fill="#fbfbfb" d="M 255.5,580.5 C 326.167,580.333 396.834,580.5 467.5,581C 499.712,581.046 529.045,590.046 555.5,608C 583.291,631.612 598.791,661.779 602,698.5C 605.843,735.127 598.843,769.46 581,801.5C 559.133,833.657 528.966,853.49 490.5,861C 480.906,862.844 471.24,864.177 461.5,865C 392.834,865.5 324.167,865.667 255.5,865.5C 254.878,864.373 254.045,863.373 253,862.5C 252.333,769.5 252.333,676.5 253,583.5C 254.045,582.627 254.878,581.627 255.5,580.5 Z"/></g>
</svg>
