<svg xmlns="http://www.w3.org/2000/svg" style="shape-rendering:geometricPrecision;text-rendering:geometricPrecision;image-rendering:optimizeQuality;fill-rule:evenodd;clip-rule:evenodd" viewBox="60 48 922 918">
  <path fill="#1e40af" d="m600 970-438-1q-4-1-6-4V434q-2-4-5-5l-90-1q-3-3-2-6l12-11h-1L503 50q9-5 18 1l320 265q144 130 120 324-24 186-186 278-82 45-175 52m273-427q-13-110-97-181L514 147h-4L239 374l-7 8v118l3 2 216 1h17a282 282 0 0 1 72 7q140 37 155 181 8 111-67 192-2 6 5 7l33-8q116-34 174-140 39-83 34-173zm-617 38h212q48 0 88 27 41 35 46 91 6 54-21 103-33 48-90 59l-29 4-206 1-3-3V584z" style="opacity:1"/>
  <path fill="#1e40af" d="M428 290h68v68h-68zm96 0h68v68h-68zm-96 96h68v68h-68zm96 0h68v68h-68z" style="opacity:1"/>
</svg>